<svg width="837" height="235" viewBox="0 0 837 235" fill="none" xmlns="http://www.w3.org/2000/svg">
<path d="M739.083 3.07747C731.936 6.47938 727.55 10.6913 729.824 12.1492C730.636 12.6352 735.997 12.3112 741.682 11.3393C751.753 9.7193 752.24 9.7193 755.652 13.9312C757.763 16.1991 759.388 18.6291 759.388 19.2771C759.225 19.925 753.053 24.7849 745.418 30.1308C737.784 35.4766 731.124 40.3365 730.799 40.9845C730.312 41.6325 732.261 43.2524 735.185 44.7104C737.946 46.1684 739.895 47.6263 739.57 48.1123C739.083 48.4363 733.235 49.2463 726.413 50.0563C714.88 51.3522 713.581 51.1902 710.657 47.9503L707.571 44.5484L730.636 32.3987C747.855 23.165 753.702 19.2771 753.702 17.0091C753.702 12.4732 749.317 12.4732 734.535 17.0091C709.845 24.4609 709.357 24.4609 715.855 14.7412C719.916 8.74732 730.961 2.26749 739.895 0.809525L745.581 -0.000454162L739.083 3.07747Z" fill="black"/>
<path d="M672.159 62.7029C689.702 71.9366 704.809 79.5504 705.783 79.5504C706.595 79.5504 715.529 75.1765 725.6 69.8307C735.509 64.4848 743.956 60.2729 744.281 60.5969C744.93 61.4069 708.382 86.0303 706.595 86.0303C705.783 86.0303 697.824 83.7623 688.727 81.0084C679.793 78.2545 667.611 74.5286 661.763 72.7466L651.042 69.5067L645.032 58.167C641.783 51.8491 639.185 46.5033 639.509 46.3413C639.834 46.0173 654.453 53.4691 672.159 62.7029Z" fill="black"/>
<path d="M619.369 49.9002C620.506 51.8442 621.318 53.7881 621.318 54.1121C621.318 55.5701 588.994 73.2277 583.634 74.6857C580.71 75.4956 572.426 80.8415 565.278 86.6734C551.471 97.6891 528.731 120.207 528.731 122.961C528.731 123.771 530.192 126.362 531.979 128.63L535.228 132.842L551.959 125.553C561.055 121.503 571.776 116.805 575.837 114.861C579.898 113.079 586.395 110.163 590.456 108.543L597.765 105.465L586.557 115.833L575.349 126.2L579.573 133.49C582.009 137.54 583.958 141.266 583.958 141.752C583.958 142.238 572.75 142.724 559.106 142.724H534.253L528.893 133.814L523.533 124.905L527.756 119.235C540.426 102.711 579.735 68.8538 584.283 70.6358C585.42 71.1217 592.892 67.5578 601.014 62.8599C611.41 56.7041 615.796 53.1402 616.445 50.2242L617.42 46.3363L619.369 49.9002Z" fill="black"/>
<path d="M827.772 97.201C814.127 104.977 808.767 109.675 805.031 117.127C797.396 132.84 809.092 145.962 830.696 145.962C839.954 145.962 838.655 147.096 827.122 149.202C810.229 152.442 798.046 145.638 795.772 132.03C793.66 118.261 801.782 107.083 819.975 98.497C832.807 92.5031 837.68 91.6931 827.772 97.201Z" fill="black"/>
<path d="M632.04 97.8567C618.396 106.443 613.685 110.33 610.436 115.028C600.69 129.608 611.736 145.97 631.39 145.97C636.588 145.97 637.725 146.456 635.939 147.59C634.639 148.399 628.954 149.209 623.594 149.209C612.061 149.209 606.213 145.808 602.477 136.898C596.304 121.994 603.127 109.844 623.106 99.6387C631.066 95.7508 637.725 94.2928 632.04 97.8567Z" fill="black"/>
<path d="M733.396 109.353C720.402 112.431 704.32 115.995 697.661 117.453L685.478 120.207L680.605 128.954C678.006 133.814 676.382 138.188 676.869 138.674C677.356 139.16 701.234 136.568 730.148 133.004C758.899 129.278 783.102 126.525 783.751 126.849C784.563 127.172 782.939 130.736 780.178 134.948L774.98 142.724H716.016C683.529 142.724 657.052 142.238 657.052 141.428C657.052 140.78 661.6 134.786 666.96 128.144L677.031 115.995L708.381 110.973C753.538 103.521 760.198 103.197 733.396 109.353Z" fill="black"/>
<path d="M17.4104 209H806L789.611 233L0 235L17.4104 209Z" fill="#D02630"/>
<path d="M656.937 198.993C658.116 198.993 659.403 198.56 660.799 197.694C662.195 196.828 663.234 195.776 663.916 194.539L687.18 154.448C687.614 153.643 687.831 152.901 687.831 152.22C687.831 150.736 686.963 149.993 685.226 149.993H662.893C661.714 149.993 660.427 150.426 659.031 151.292C657.635 152.159 656.596 153.21 655.914 154.448L632.65 194.539C632.216 195.343 631.999 196.085 631.999 196.766C631.999 198.251 632.867 198.993 634.604 198.993H656.937Z" fill="black"/>
<path d="M641.191 167.818C642.369 167.818 643.657 167.385 645.052 166.519C646.448 165.653 647.487 164.601 648.17 163.364L653.381 154.455C653.815 153.65 654.032 152.908 654.032 152.227C654.032 150.742 653.195 150 651.52 150H588.987C587.746 150 586.428 150.433 585.032 151.299C583.636 152.165 582.597 153.217 581.915 154.455L558.651 194.545C558.217 195.35 558 196.092 558 196.773C558 198.258 558.869 199 560.606 199H623.138C624.317 199 625.604 198.567 627 197.701C628.396 196.835 629.435 195.783 630.117 194.545L640.446 176.727C640.943 175.923 641.191 175.181 641.191 174.5C641.191 173.015 640.322 172.273 638.585 172.273H616.252C615.011 172.273 613.709 172.706 612.344 173.572C610.979 174.438 609.924 175.49 609.18 176.727L601.456 190.091C600.774 191.328 599.735 192.38 598.339 193.246C596.943 194.112 595.625 194.545 594.384 194.545C592.709 194.545 591.872 193.803 591.872 192.318C591.872 191.638 592.089 190.895 592.523 190.091L610.576 158.909C611.32 157.672 612.375 156.62 613.74 155.754C615.104 154.888 616.407 154.455 617.648 154.455C619.323 154.455 620.16 155.197 620.16 156.682C620.16 157.362 619.943 158.105 619.509 158.909L616.903 163.364C616.469 164.168 616.252 164.91 616.252 165.591C616.252 167.076 617.121 167.818 618.858 167.818H641.191Z" fill="black"/>
<path d="M696.892 149.993C695.713 149.993 694.426 150.426 693.03 151.292C691.635 152.159 690.595 153.21 689.913 154.448L666.649 194.539C666.215 195.343 665.998 196.085 665.998 196.766C665.998 198.251 666.867 198.993 668.604 198.993H690.937C692.115 198.993 693.403 198.56 694.798 197.694C696.194 196.828 697.233 195.776 697.916 194.539L718.574 158.902C719.256 157.665 720.295 156.613 721.691 155.747C723.087 154.881 724.405 154.448 725.646 154.448C727.321 154.448 728.158 155.19 728.158 156.675C728.158 157.356 727.941 158.098 727.507 158.902L706.849 194.539C706.415 195.343 706.198 196.085 706.198 196.766C706.198 198.251 707.066 198.993 708.803 198.993H731.136C732.315 198.993 733.602 198.56 734.998 197.694C736.394 196.828 737.433 195.776 738.115 194.539L761.379 154.448C761.813 153.643 762.03 152.901 762.03 152.22C762.03 150.736 761.162 149.993 759.425 149.993H696.892Z" fill="black"/>
<path d="M790.291 205.537C790.291 205.537 790.291 205.537 790.291 206.037L790.291 205.537L781.601 205.55C781.12 205.551 779.468 205.543 777.872 205.534C777.597 205.533 777.323 205.532 777.058 205.53C775.787 205.524 774.7 205.518 774.499 205.518C774.482 205.518 774.468 205.518 774.455 205.517C774.461 205.472 774.474 205.408 774.501 205.322C774.544 205.19 774.61 205.033 774.697 204.857C774.873 204.504 775.111 204.114 775.346 203.736C775.372 203.695 775.397 203.654 775.423 203.613C775.624 203.29 775.824 202.969 775.947 202.724C776.485 201.648 776.614 200.506 776.49 199.9C776.486 199.882 776.482 199.86 776.478 199.834C776.446 199.639 776.378 199.229 776.029 198.934C775.653 198.615 775.047 198.486 774.128 198.488L742.693 198.535C741.878 198.537 741.36 198.363 741.051 198.101C740.757 197.852 740.571 197.456 740.57 196.816C740.57 196.246 740.752 195.59 741.158 194.838L764.483 154.806L764.483 154.806L764.488 154.797C765.124 153.648 766.102 152.655 767.443 151.827C768.791 150.994 770.026 150.601 771.155 150.599L834.026 150.504C834.805 150.502 835.297 150.675 835.591 150.932C835.872 151.179 836.054 151.577 836.055 152.223C836.055 152.793 835.873 153.449 835.468 154.2L830.246 163.09L830.246 163.09L830.24 163.101C829.604 164.25 828.626 165.242 827.285 166.071C825.932 166.907 824.729 167.297 823.666 167.299L801.213 167.333C800.398 167.334 799.88 167.16 799.571 166.898C799.277 166.65 799.091 166.254 799.09 165.614C799.09 165.044 799.272 164.388 799.677 163.637L802.286 159.195L802.29 159.188L802.294 159.18C802.756 158.328 803.008 157.504 803.006 156.718C803.005 155.882 802.764 155.169 802.202 154.677C801.653 154.195 800.881 153.999 799.976 154C798.61 154.002 797.209 154.478 795.782 155.38C794.354 156.282 793.237 157.387 792.445 158.697L792.445 158.697L792.441 158.704L774.338 189.846L774.334 189.852L774.331 189.859C773.869 190.711 773.617 191.535 773.619 192.321C773.62 193.157 773.861 193.87 774.423 194.362C774.972 194.844 775.744 195.041 776.649 195.039C778.014 195.037 779.429 194.562 780.885 193.662C782.346 192.759 783.454 191.651 784.187 190.33L791.927 176.992C792.629 175.832 793.628 174.836 794.94 174.007C796.255 173.176 797.472 172.783 798.601 172.782L821.055 172.748C821.869 172.746 822.387 172.92 822.697 173.182C822.991 173.431 823.176 173.827 823.177 174.467C823.178 175.023 822.974 175.672 822.507 176.426L822.507 176.426L822.5 176.437L806.28 204.217C806.251 204.26 806.222 204.302 806.194 204.342C805.909 204.756 805.727 205.02 805.565 205.204C805.404 205.388 805.296 205.452 805.164 205.49C804.996 205.538 804.753 205.553 804.285 205.547C804.145 205.545 803.988 205.541 803.811 205.537C803.423 205.529 802.942 205.518 802.359 205.518L802.356 205.518L802.352 205.518L802.348 205.518L802.344 205.518L802.34 205.518L802.335 205.518L802.33 205.518L802.325 205.518L802.32 205.519L802.314 205.519L802.308 205.519L802.302 205.519L802.296 205.519L802.289 205.519L802.282 205.519L802.275 205.519L802.268 205.519L802.261 205.519L802.253 205.519L802.245 205.519L802.237 205.519L802.228 205.519L802.22 205.519L802.211 205.519L802.202 205.519L802.192 205.519L802.183 205.519L802.173 205.519L802.163 205.519L802.153 205.519L802.142 205.519L802.131 205.519L802.12 205.519L802.109 205.519L802.098 205.519L802.086 205.519L802.075 205.519L802.063 205.519L802.051 205.519L802.038 205.519L802.026 205.519L802.013 205.519L802 205.519L801.986 205.519L801.973 205.519L801.959 205.519L801.945 205.519L801.931 205.519L801.917 205.519L801.903 205.519L801.888 205.519L801.873 205.519L801.858 205.519L801.843 205.519L801.827 205.519L801.812 205.519L801.796 205.519L801.78 205.519L801.764 205.519L801.747 205.519L801.731 205.519L801.714 205.519L801.697 205.519L801.68 205.519L801.662 205.519L801.645 205.52L801.627 205.52L801.609 205.52L801.591 205.52L801.573 205.52L801.554 205.52L801.536 205.52L801.517 205.52L801.498 205.52L801.479 205.52L801.459 205.52L801.44 205.52L801.42 205.52L801.4 205.52L801.38 205.52L801.36 205.52L801.34 205.52L801.319 205.52L801.298 205.52L801.278 205.52L801.256 205.52L801.235 205.52L801.214 205.52L801.192 205.52L801.171 205.52L801.149 205.52L801.127 205.52L801.105 205.52L801.082 205.52L801.06 205.52L801.037 205.52L801.014 205.52L800.991 205.521L800.968 205.521L800.945 205.521L800.922 205.521L800.898 205.521L800.874 205.521L800.851 205.521L800.827 205.521L800.803 205.521L800.778 205.521L800.754 205.521L800.729 205.521L800.705 205.521L800.68 205.521L800.655 205.521L800.63 205.521L800.604 205.521L800.579 205.521L800.553 205.521L800.528 205.521L800.502 205.521L800.476 205.521L800.45 205.521L800.424 205.521L800.397 205.521L800.371 205.521L800.344 205.521L800.318 205.522L800.291 205.522L800.264 205.522L800.237 205.522L800.21 205.522L800.182 205.522L800.155 205.522L800.127 205.522L800.1 205.522L800.072 205.522L800.044 205.522L800.016 205.522L799.988 205.522L799.96 205.522L799.931 205.522L799.903 205.522L799.874 205.522L799.845 205.522L799.817 205.522L799.788 205.522L799.759 205.522L799.73 205.522L799.7 205.522L799.671 205.523L799.642 205.523L799.612 205.523L799.582 205.523L799.553 205.523L799.523 205.523L799.493 205.523L799.463 205.523L799.433 205.523L799.403 205.523L799.372 205.523L799.342 205.523L799.312 205.523L799.281 205.523L799.25 205.523L799.22 205.523L799.189 205.523L799.158 205.523L799.127 205.523L799.096 205.523L799.064 205.523L799.033 205.523L799.002 205.524L798.97 205.524L798.939 205.524L798.907 205.524L798.876 205.524L798.844 205.524L798.812 205.524L798.78 205.524L798.748 205.524L798.716 205.524L798.684 205.524L798.652 205.524L798.62 205.524L798.588 205.524L798.555 205.524L798.523 205.524L798.49 205.524L798.458 205.524L798.425 205.524L798.392 205.524L798.36 205.524L798.327 205.525L798.294 205.525L798.261 205.525L798.228 205.525L798.195 205.525L798.162 205.525L798.129 205.525L798.096 205.525L798.062 205.525L798.029 205.525L797.996 205.525L797.962 205.525L797.929 205.525L797.895 205.525L797.862 205.525L797.828 205.525L797.795 205.525L797.761 205.525L797.727 205.525L797.694 205.526L797.66 205.526L797.626 205.526L797.592 205.526L797.558 205.526L797.524 205.526L797.49 205.526L797.456 205.526L797.422 205.526L797.388 205.526L797.354 205.526L797.32 205.526L797.286 205.526L797.252 205.526L797.217 205.526L797.183 205.526L797.149 205.526L797.115 205.526L797.08 205.526L797.046 205.526L797.012 205.527L796.977 205.527L796.943 205.527L796.908 205.527L796.874 205.527L796.84 205.527L796.805 205.527L796.771 205.527L796.736 205.527L796.702 205.527L796.667 205.527L796.633 205.527L796.598 205.527L796.564 205.527L796.529 205.527L796.495 205.527L796.46 205.527L796.425 205.527L796.391 205.527L796.356 205.528L796.322 205.528L796.287 205.528L796.253 205.528L796.218 205.528L796.184 205.528L796.149 205.528L796.114 205.528L796.08 205.528L796.045 205.528L796.011 205.528L795.976 205.528L795.942 205.528L795.907 205.528L795.873 205.528L795.838 205.528L795.804 205.528L795.77 205.528L795.735 205.528L795.701 205.529L795.666 205.529L795.632 205.529L795.598 205.529L795.563 205.529L795.529 205.529L795.495 205.529L795.461 205.529L795.426 205.529L795.392 205.529L795.358 205.529L795.324 205.529L795.29 205.529L795.256 205.529L795.222 205.529L795.188 205.529L795.154 205.529L795.12 205.529L795.086 205.529L795.052 205.53L795.018 205.53L794.984 205.53L794.951 205.53L794.917 205.53L794.883 205.53L794.85 205.53L794.816 205.53L794.782 205.53L794.749 205.53L794.715 205.53L794.682 205.53L794.649 205.53L794.615 205.53L794.582 205.53L794.549 205.53L794.516 205.53L794.483 205.53L794.45 205.53L794.417 205.53L794.384 205.531L794.351 205.531L794.318 205.531L794.285 205.531L794.253 205.531L794.22 205.531L794.187 205.531L794.155 205.531L794.122 205.531L794.09 205.531L794.058 205.531L794.025 205.531L793.993 205.531L793.961 205.531L793.929 205.531L793.897 205.531L793.865 205.531L793.833 205.531L793.802 205.531L793.77 205.531L793.738 205.531L793.707 205.532L793.676 205.532L793.644 205.532L793.613 205.532L793.582 205.532L793.551 205.532L793.52 205.532L793.489 205.532L793.458 205.532L793.427 205.532L793.396 205.532L793.366 205.532L793.335 205.532L793.305 205.532L793.275 205.532L793.244 205.532L793.214 205.532L793.184 205.532L793.154 205.532L793.124 205.532L793.095 205.532L793.065 205.533L793.035 205.533L793.006 205.533L792.977 205.533L792.947 205.533L792.918 205.533L792.889 205.533L792.86 205.533L792.831 205.533L792.803 205.533L792.774 205.533L792.746 205.533L792.717 205.533L792.689 205.533L792.661 205.533L792.633 205.533L792.605 205.533L792.577 205.533L792.549 205.533L792.522 205.533L792.494 205.533L792.467 205.533L792.44 205.533L792.413 205.534L792.386 205.534L792.359 205.534L792.332 205.534L792.305 205.534L792.279 205.534L792.253 205.534L792.226 205.534L792.2 205.534L792.174 205.534L792.149 205.534L792.123 205.534L792.097 205.534L792.072 205.534L792.047 205.534L792.021 205.534L791.996 205.534L791.972 205.534L791.947 205.534L791.922 205.534L791.898 205.534L791.874 205.534L791.849 205.534L791.825 205.534L791.801 205.534L791.778 205.534L791.754 205.535L791.731 205.535L791.707 205.535L791.684 205.535L791.661 205.535L791.639 205.535L791.616 205.535L791.593 205.535L791.571 205.535L791.549 205.535L791.527 205.535L791.505 205.535L791.483 205.535L791.462 205.535L791.44 205.535L791.419 205.535L791.398 205.535L791.377 205.535L791.356 205.535L791.336 205.535L791.315 205.535L791.295 205.535L791.275 205.535L791.255 205.535L791.235 205.535L791.216 205.535L791.196 205.535L791.177 205.535L791.158 205.535L791.139 205.535L791.121 205.535L791.102 205.535L791.084 205.536L791.066 205.536L791.048 205.536L791.03 205.536L791.012 205.536L790.995 205.536L790.978 205.536L790.961 205.536L790.944 205.536L790.927 205.536L790.911 205.536L790.894 205.536L790.878 205.536L790.863 205.536L790.847 205.536L790.831 205.536L790.816 205.536L790.801 205.536L790.786 205.536L790.771 205.536L790.757 205.536L790.743 205.536L790.728 205.536L790.715 205.536L790.701 205.536L790.687 205.536L790.674 205.536L790.661 205.536L790.648 205.536L790.636 205.536L790.623 205.536L790.611 205.536L790.599 205.536L790.587 205.536L790.575 205.536L790.564 205.536L790.553 205.536L790.542 205.536L790.531 205.536L790.521 205.536L790.51 205.536L790.5 205.536L790.491 205.536L790.481 205.536L790.471 205.536L790.462 205.536L790.453 205.536L790.445 205.536L790.436 205.536L790.428 205.537L790.42 205.537L790.412 205.537L790.405 205.537L790.397 205.537L790.39 205.537L790.383 205.537L790.377 205.537L790.37 205.537L790.364 205.537L790.358 205.537L790.352 205.537L790.347 205.537L790.342 205.537L790.337 205.537L790.332 205.537L790.328 205.537L790.324 205.537L790.32 205.537L790.316 205.537L790.312 205.537L790.309 205.537L790.306 205.537L790.304 205.537L790.301 205.537L790.299 205.537L790.297 205.537L790.295 205.537L790.294 205.537L790.293 205.537L790.292 205.537L790.291 205.537L790.291 205.537Z" fill="black" stroke="black"/>
<path d="M514.903 150C513.666 150 512.351 150.433 510.959 151.299C509.567 152.165 508.531 153.217 507.85 154.455L502.653 163.364C502.22 164.168 502.004 164.91 502.004 165.591C502.004 167.076 502.87 167.818 504.602 167.818H526.875C528.05 167.818 529.334 167.385 530.726 166.519C532.118 165.653 533.155 164.601 533.835 163.364L536.434 158.909C537.176 157.672 538.228 156.62 539.589 155.754C540.95 154.888 542.249 154.455 543.487 154.455C545.157 154.455 545.992 155.197 545.992 156.682C545.992 157.362 545.776 158.105 545.343 158.909L540.239 167.818C539.496 169.056 538.444 170.107 537.083 170.973C535.722 171.84 534.423 172.273 533.186 172.273H502.004C500.766 172.273 499.467 172.706 498.106 173.572C496.745 174.438 495.693 175.49 494.951 176.727L484.65 194.545C484.217 195.35 484 196.092 484 196.773C484 198.258 484.866 199 486.598 199H548.962C550.138 199 551.421 198.567 552.813 197.701C554.205 196.835 555.242 195.783 555.922 194.545L579.123 154.455C579.556 153.65 579.773 152.908 579.773 152.227C579.773 150.742 578.937 150 577.267 150H514.903V150ZM527.339 190.091C526.658 191.328 525.622 192.38 524.23 193.246C522.838 194.112 521.523 194.545 520.286 194.545C518.615 194.545 517.78 193.803 517.78 192.318C517.78 191.638 517.997 190.895 518.43 190.091L523.627 181.182C524.307 179.944 525.328 178.893 526.689 178.026C528.05 177.16 529.35 176.727 530.587 176.727C532.319 176.727 533.186 177.47 533.186 178.955C533.186 179.635 532.969 180.377 532.536 181.182L527.339 190.091Z" fill="black"/>
<path d="M509.762 146.143C507.408 150.673 505.286 153 500 153C495.463 153 467 153 461.686 153.296C456.372 153.591 456.401 158.842 461.686 158.842C466.972 158.842 495.723 158.087 497.988 158.842C500.253 159.598 500.734 162 499.734 164C498.734 166 490 181 490 181C490 181 487.5 185.5 485.5 189C483.962 191.692 482.5 194 481 196C478.905 198.793 475.694 199 473.521 199H438.694C433.408 199 432.653 196.735 434.163 192.959C435.674 189.184 445.578 171.061 445.578 171.061C448.598 165.02 452.374 159.735 446.333 158.98C440.292 158.225 437.606 163.51 435.762 166.531L422.17 190.876C419.15 196.735 414.966 199 413.021 199L377.623 199C372.977 199 371.578 196.04 374.599 190.876L409.245 131.796C411.418 128.897 415.074 125 419.816 125H481.735C486.265 125 514.204 125 514.204 125C514.204 125 513.181 125 516.468 125.001C519.755 125.002 519.366 129.026 518.734 130.287C518.102 131.548 518.732 130.289 517.223 133.308C515.714 136.327 511.109 143.55 509.762 146.143ZM462.857 131.796C459.414 131.796 456.816 133.306 454.551 136.327L450.776 141.612L447.755 146.5C445.913 149.52 445.494 152.678 449.265 153.296C453.037 153.914 457.572 151.191 460.592 146.5L465.123 139.704C468.898 133.663 466.301 131.796 462.857 131.796Z" fill="black"/>
<path d="M220.987 150C219.746 150 218.428 150.433 217.032 151.299C215.636 152.165 214.597 153.217 213.915 154.455L208.704 163.364C208.27 164.168 208.053 164.91 208.053 165.591C208.053 167.076 208.921 167.818 210.658 167.818H232.991C234.17 167.818 235.457 167.385 236.853 166.519C238.249 165.653 239.288 164.601 239.97 163.364L242.576 158.909C243.32 157.672 244.375 156.62 245.74 155.754C247.104 154.888 248.407 154.455 249.648 154.455C251.323 154.455 252.16 155.197 252.16 156.682C252.16 157.362 251.943 158.105 251.509 158.909L246.391 167.818C245.647 169.056 244.592 170.107 243.227 170.973C241.862 171.84 240.56 172.273 239.319 172.273H208.053C206.812 172.273 205.509 172.706 204.144 173.572C202.779 174.438 201.725 175.49 200.98 176.727L190.651 194.545C190.217 195.35 190 196.092 190 196.773C190 198.258 190.869 199 192.606 199H255.138C256.317 199 257.604 198.567 259 197.701C260.396 196.835 261.435 195.783 262.117 194.545L285.381 154.455C285.815 153.65 286.032 152.908 286.032 152.227C286.032 150.742 285.195 150 283.52 150H220.987V150ZM233.456 190.091C232.774 191.328 231.735 192.38 230.339 193.246C228.943 194.112 227.625 194.545 226.384 194.545C224.709 194.545 223.872 193.803 223.872 192.318C223.872 191.638 224.089 190.895 224.523 190.091L229.734 181.182C230.417 179.944 231.44 178.893 232.805 178.026C234.17 177.16 235.473 176.727 236.713 176.727C238.45 176.727 239.319 177.47 239.319 178.955C239.319 179.635 239.102 180.377 238.667 181.182L233.456 190.091Z" fill="black"/>
<path d="M282.053 172.273C280.812 172.273 279.509 172.706 278.144 173.572C276.779 174.438 275.725 175.49 274.98 176.727L264.651 194.545C264.217 195.35 264 196.092 264 196.773C264 198.258 264.869 199 266.606 199H288.939C290.117 199 291.405 198.567 292.8 197.701C294.196 196.835 295.235 195.783 295.918 194.545L303.734 181.182C304.417 179.944 305.44 178.893 306.805 178.026C308.17 177.16 309.473 176.727 310.713 176.727C312.388 176.727 313.226 177.47 313.226 178.955C313.226 179.635 313.009 180.377 312.574 181.182L304.851 194.545C304.417 195.35 304.2 196.092 304.2 196.773C304.2 198.258 305.037 199 306.712 199H329.045C330.286 199 331.589 198.567 332.953 197.701C334.318 196.835 335.373 195.783 336.117 194.545L346.446 176.727C346.88 175.923 347.098 175.181 347.098 174.5C347.098 173.015 346.229 172.273 344.492 172.273H322.159C319.926 172.273 318.809 171.747 318.809 170.695C318.809 169.767 319.647 169.025 321.322 168.468C322.562 168.035 323.71 167.818 324.765 167.818H347.098C348.338 167.818 349.641 167.385 351.006 166.519C352.371 165.653 353.425 164.601 354.17 163.364L359.288 154.455C359.784 153.65 360.032 152.908 360.032 152.227C360.032 150.742 359.164 150 357.427 150H335.094C333.853 150 332.55 150.433 331.185 151.299C329.821 152.165 328.766 153.217 328.021 154.455L325.509 158.909C324.765 160.146 323.71 161.198 322.345 162.064C320.98 162.931 319.678 163.364 318.437 163.364C316.7 163.364 315.831 162.621 315.831 161.136C315.831 160.456 316.079 159.713 316.576 158.909L319.088 154.455C319.585 153.65 319.833 152.908 319.833 152.227C319.833 150.742 318.964 150 317.227 150H294.894C293.653 150 292.351 150.433 290.986 151.299C289.621 152.165 288.566 153.217 287.822 154.455L282.704 163.364C282.27 164.168 282.053 164.91 282.053 165.591C282.053 167.076 282.89 167.818 284.565 167.818H306.898C309.131 167.818 310.248 168.344 310.248 169.396C310.248 170.324 309.442 171.066 307.829 171.623C306.588 172.056 305.409 172.273 304.293 172.273H282.053Z" fill="black"/>
<path d="M142.089 191.762C140.885 193.769 140.732 194.928 140.732 195.636C140.732 196.344 140.868 199 144.803 199C148.738 199 180.09 199 180.09 199C182.352 199 184.614 198.395 185.972 197.038C187.329 195.681 188.686 193.689 189.591 192.273C190.496 190.857 223.754 131.727 223.754 131.727C224.503 130.513 224.878 129.391 224.878 128.364C224.878 126.121 223.566 125 220.943 125H65.7969C63.9231 125 61.9557 125.654 59.8946 126.962C57.8334 128.27 56.2407 129.859 55.1165 131.727L20.1242 192.273C19.3747 193.487 19 194.609 19 195.636C19 197.879 20.3116 199 22.9349 199H56.6623C58.5361 199 60.5035 198.346 62.5646 197.038C64.6258 195.73 66.2185 194.141 67.3427 192.273L98.4001 138.455C99.5243 136.586 101.117 134.997 103.178 133.689C105.239 132.381 107.207 131.727 109.08 131.727C111.704 131.727 113.015 132.848 113.015 135.091C113.015 136.119 112.641 137.24 111.891 138.455L80.8337 192.273C80.0842 193.487 79.7094 194.609 79.7094 195.636C79.7094 197.879 81.0211 199 83.6443 199H117.372C119.246 199 121.213 198.346 123.274 197.038C125.335 195.73 126.928 194.141 128.052 192.273L159.25 138.455C160.281 136.586 161.826 134.997 163.888 133.689C165.949 132.381 167.916 131.727 169.79 131.727C172.413 131.727 173.725 132.848 173.725 135.091C173.725 136.119 173.397 137.24 172.741 138.455C172.741 138.455 143.293 189.755 142.089 191.762Z" fill="black"/>
<path d="M649.627 215.001L652.225 211.001H666.323L663.725 215.001H658.961L648.57 231.001H644L654.391 215.001H649.627V215.001Z" fill="white"/>
<path d="M681.185 211L678.587 215H671.684L669.102 218.976H675.714L673.116 222.976H666.504L663.89 227H670.794L668.196 231H656.723L669.712 211H681.185V211Z" fill="white"/>
<path d="M696.583 211L691.688 231H686.778L687.893 227H680.26L676.18 231H671.27L692.353 211H696.583V211ZM688.935 223L690.429 217.182L684.414 223H688.935V223Z" fill="white"/>
<path d="M706.711 230.879H704.328L707.355 218.322L699.072 231H694.527L707.516 211H713.982L710.935 222.54L722.878 211H729.344L716.355 231H711.809L719.995 218.322L706.711 230.879Z" fill="white"/>
</svg>
